<?xml version="1.0" encoding="UTF-8" standalone="no"?>
<svg
   xmlns:dc="http://purl.org/dc/elements/1.1/"
   xmlns:cc="http://creativecommons.org/ns#"
   xmlns:rdf="http://www.w3.org/1999/02/22-rdf-syntax-ns#"
   xmlns:svg="http://www.w3.org/2000/svg"
   xmlns="http://www.w3.org/2000/svg"
   xmlns:sodipodi="http://sodipodi.sourceforge.net/DTD/sodipodi-0.dtd"
   xmlns:inkscape="http://www.inkscape.org/namespaces/inkscape"
   inkscape:version="1.0 (4035a4fb49, 2020-05-01)"
   height="31.77"
   width="31.77"
   sodipodi:docname="github.svg"
   id="svg10"
   version="1.1"
   viewBox="0 0 31.769999 31.77">
  <metadata
     id="metadata14">
    <rdf:RDF>
      <cc:Work
         rdf:about="">
        <dc:format>image/svg+xml</dc:format>
        <dc:type
           rdf:resource="http://purl.org/dc/dcmitype/StillImage" />
        <dc:title></dc:title>
      </cc:Work>
    </rdf:RDF>
  </metadata>
  <sodipodi:namedview
     inkscape:current-layer="svg10"
     inkscape:window-maximized="1"
     inkscape:window-y="27"
     inkscape:window-x="0"
     inkscape:cy="19.52669"
     inkscape:cx="16.290001"
     inkscape:zoom="17.97293"
     inkscape:pagecheckerboard="false"
     showgrid="false"
     id="namedview12"
     inkscape:window-height="712"
     inkscape:window-width="1366"
     inkscape:pageshadow="2"
     inkscape:pageopacity="0"
     guidetolerance="10"
     gridtolerance="10"
     objecttolerance="10"
     borderopacity="1"
     bordercolor="#666666"
     pagecolor="#ffffff" />
  <defs
     id="defs4">
    <style
       id="style2">.cls-1{fill:#231e1b;fill-rule:evenodd;}</style>
  </defs>
  <g
     transform="matrix(0.97903339,0,0,1,-3.4713849e-4,0)"
     data-name="Capa 2"
     id="Capa_2">
    <g
       data-name="Layer 1"
       id="Layer_1">
      <path
         id="path6"
         d="m 16.29,0 a 16.29,16.29 0 0 0 -5.15,31.75 c 0.82,0.15 1.11,-0.36 1.11,-0.79 0,-0.43 0,-1.41 0,-2.77 C 7.7,29.18 6.74,26 6.74,26 A 4.36,4.36 0 0 0 4.93,23.61 c -1.47,-1 0.12,-1 0.12,-1 a 3.43,3.43 0 0 1 2.49,1.68 3.48,3.48 0 0 0 4.74,1.36 3.46,3.46 0 0 1 1,-2.18 C 9.66,23.06 5.86,21.66 5.86,15.47 A 6.3,6.3 0 0 1 7.53,11.1 5.94,5.94 0 0 1 7.69,6.79 c 0,0 1.37,-0.44 4.48,1.67 a 15.41,15.41 0 0 1 8.16,0 C 23.44,6.35 24.8,6.79 24.8,6.79 a 5.91,5.91 0 0 1 0.2,4.28 6.3,6.3 0 0 1 1.67,4.37 c 0,6.26 -3.81,7.63 -7.44,8 a 3.85,3.85 0 0 1 1.11,3 c 0,2.18 0,3.94 0,4.47 0,0.53 0.29,0.94 1.12,0.78 A 16.29,16.29 0 0 0 16.29,0 Z"
         class="cls-1" />
    </g>
  </g>
</svg>
