<?xml version="1.0" encoding="UTF-8"?>
<svg xmlns="http://www.w3.org/2000/svg" xmlns:xlink="http://www.w3.org/1999/xlink" width="48pt" height="48pt" viewBox="0 0 48 48" version="1.1">
<g id="surface20712459">
<path style=" stroke:none;fill-rule:nonzero;fill:rgb(0%,0%,0%);fill-opacity:1;" d="M 0 24 C 0 10.746094 10.746094 0 24 0 C 37.253906 0 48 10.746094 48 24 C 48 37.253906 37.253906 48 24 48 C 10.746094 48 0 37.253906 0 24 Z M 24 47.039062 C 36.726562 47.039062 47.039062 36.726562 47.039062 24 C 47.039062 11.273438 36.726562 0.960938 24 0.960938 C 11.273438 0.960938 0.960938 11.273438 0.960938 24 C 0.960938 36.726562 11.273438 47.039062 24 47.039062 Z M 24 47.039062 "/>
<path style=" stroke:none;fill-rule:nonzero;fill:rgb(89.803922%,22.352941%,20.784314%);fill-opacity:1;" d="M 24 36.28125 L 18.828125 21.414062 L 29.171875 21.414062 Z M 24 36.28125 "/>
<path style=" stroke:none;fill-rule:nonzero;fill:rgb(100%,43.921569%,26.27451%);fill-opacity:1;" d="M 24 36.28125 L 35.632812 21.414062 L 29.171875 21.414062 Z M 24 36.28125 "/>
<path style=" stroke:none;fill-rule:nonzero;fill:rgb(89.803922%,22.352941%,20.784314%);fill-opacity:1;" d="M 32.402344 11.71875 L 35.632812 21.414062 L 29.171875 21.414062 Z M 32.402344 11.71875 "/>
<path style=" stroke:none;fill-rule:nonzero;fill:rgb(100%,65.490196%,14.901961%);fill-opacity:1;" d="M 24 36.28125 L 35.632812 21.414062 L 37.574219 26.585938 Z M 24 36.28125 "/>
<path style=" stroke:none;fill-rule:nonzero;fill:rgb(100%,43.921569%,26.27451%);fill-opacity:1;" d="M 24 36.28125 L 12.367188 21.414062 L 18.828125 21.414062 Z M 24 36.28125 "/>
<path style=" stroke:none;fill-rule:nonzero;fill:rgb(89.803922%,22.352941%,20.784314%);fill-opacity:1;" d="M 15.597656 11.71875 L 12.367188 21.414062 L 18.828125 21.414062 Z M 15.597656 11.71875 "/>
<path style=" stroke:none;fill-rule:nonzero;fill:rgb(100%,65.490196%,14.901961%);fill-opacity:1;" d="M 24 36.28125 L 12.367188 21.414062 L 10.425781 26.585938 Z M 24 36.28125 "/>
</g>
</svg>
