<?xml version="1.0" encoding="UTF-8" standalone="no"?>
<!-- Created with Inkscape (http://www.inkscape.org/) -->

<svg
   width="9.547514in"
   height="9.1581888in"
   viewBox="0 0 242.50685 232.618"
   version="1.1"
   id="svg21502"
   inkscape:version="1.1 (c4e8f9ed74, 2021-05-24)"
   sodipodi:docname="drawing.svg"
   xmlns:inkscape="http://www.inkscape.org/namespaces/inkscape"
   xmlns:sodipodi="http://sodipodi.sourceforge.net/DTD/sodipodi-0.dtd"
   xmlns="http://www.w3.org/2000/svg"
   xmlns:svg="http://www.w3.org/2000/svg">
  <sodipodi:namedview
     id="namedview21504"
     pagecolor="#ffffff"
     bordercolor="#666666"
     borderopacity="1.0"
     inkscape:pageshadow="2"
     inkscape:pageopacity="0.0"
     inkscape:pagecheckerboard="0"
     inkscape:document-units="mm"
     showgrid="false"
     inkscape:zoom="0.42167167"
     inkscape:cx="667.58101"
     inkscape:cy="474.30267"
     inkscape:window-width="1366"
     inkscape:window-height="712"
     inkscape:window-x="0"
     inkscape:window-y="27"
     inkscape:window-maximized="1"
     inkscape:current-layer="layer1"
     inkscape:snap-bbox="true"
     inkscape:bbox-paths="true"
     inkscape:bbox-nodes="true"
     inkscape:snap-bbox-edge-midpoints="true"
     inkscape:snap-bbox-midpoints="true"
     inkscape:object-paths="true"
     inkscape:snap-intersection-paths="true"
     inkscape:snap-global="false"
     fit-margin-top="0"
     fit-margin-left="0"
     fit-margin-right="0"
     fit-margin-bottom="0"
     units="in" />
  <defs
     id="defs21499" />
  <g
     inkscape:label="Layer 1"
     inkscape:groupmode="layer"
     id="layer1"
     transform="translate(19.8402,-3.5913514)">
    <g
       id="g155102"
       transform="translate(-3.9135624,-19.243587)">
      <g
         id="g155042">
        <rect
           style="fill:#f2f2f2;fill-opacity:1;stroke:none;stroke-width:5.37688;stroke-linecap:square;stroke-linejoin:round;stroke-miterlimit:4;stroke-dasharray:none;stroke-opacity:1;paint-order:markers fill stroke"
           id="rect154213"
           width="242.50687"
           height="20.875658"
           x="-15.926638"
           y="226.40041"
           ry="10.437829" />
        <path
           id="rect154287"
           style="fill:#f2f2f2;fill-opacity:1;stroke:none;stroke-width:4.22606;stroke-linecap:square;stroke-linejoin:round;stroke-miterlimit:4;stroke-dasharray:none;stroke-opacity:1;paint-order:markers fill stroke"
           d="m 32.573933,238.29223 c -4.715042,0 -8.511109,3.79607 -8.511109,8.51111 0,4.71504 3.796067,8.51058 8.511109,8.51058 H 199.27693 c 1.7081,0 9.44178,1.34115 7.40214,-4.30774 -0.68258,-1.89042 -24.31428,0 -24.31428,0 -2.24612,0 -4.05454,-1.80841 -4.05454,-4.05453 0,-2.24611 1.80842,-4.05453 4.05454,-4.05453 h 24.47447 c -1.41158,-2.73768 -4.25853,-4.60489 -7.56233,-4.60489 z"
           sodipodi:nodetypes="sssssssscss" />
        <rect
           style="fill:#cccccc;fill-opacity:1;stroke:none;stroke-width:2.33197;stroke-linecap:square;stroke-linejoin:round;stroke-miterlimit:4;stroke-dasharray:none;stroke-opacity:1;paint-order:markers fill stroke"
           id="rect152049"
           width="231.71533"
           height="4.1095304"
           x="-10.486301"
           y="234.53677"
           ry="2.0547652" />
        <rect
           style="fill:#cccccc;fill-opacity:1;stroke:none;stroke-width:1.72713;stroke-linecap:square;stroke-linejoin:round;stroke-miterlimit:4;stroke-dasharray:none;stroke-opacity:1;paint-order:markers fill stroke"
           id="rect154087"
           width="127.10505"
           height="4.1095304"
           x="65.293266"
           y="237.35995"
           ry="2.0547652" />
        <rect
           style="fill:#00aad4;fill-opacity:1;stroke:none;stroke-width:0.461524;stroke-linecap:square;stroke-linejoin:round;stroke-miterlimit:4;stroke-dasharray:none;stroke-opacity:1;paint-order:markers fill stroke"
           id="rect154089"
           width="14.043226"
           height="2.6559916"
           x="34.791466"
           y="240.9232"
           ry="1.3279958" />
        <rect
           style="fill:#00aad4;fill-opacity:1;stroke:none;stroke-width:0.256592;stroke-linecap:square;stroke-linejoin:round;stroke-miterlimit:4;stroke-dasharray:none;stroke-opacity:1;paint-order:markers fill stroke"
           id="rect154109"
           width="3.9828537"
           height="2.8946939"
           x="55.627449"
           y="241.03011"
           ry="1.4473469" />
      </g>
      <g
         id="g155068">
        <path
           style="fill:#fa8362;fill-opacity:1;stroke:none;stroke-width:0.264583px;stroke-linecap:butt;stroke-linejoin:miter;stroke-opacity:1"
           d="m 173.85046,226.764 0.75997,4.1387 c 0,0 -0.436,1.05626 -1.68318,1.40499 -1.24718,0.34872 -1.86525,0.25523 -1.86734,0.0656 l -0.002,-0.18968 c 0,0 -0.87608,-2.0759 -1.0925,-2.65624 -0.21641,-0.58034 2.64814,-2.583 3.17038,-2.75182 0.52241,-0.16887 0.71475,-0.0115 0.71475,-0.0115 z"
           id="path62432"
           sodipodi:nodetypes="ccsccsscc" />
        <path
           style="fill:#ff8764;fill-opacity:1;stroke:none;stroke-width:0.829787px;stroke-linecap:butt;stroke-linejoin:miter;stroke-opacity:1"
           d="m 135.26137,49.981709 c -2.69224,-6.524281 0.53897,-9.872086 -2.80064,-13.772586 -3.3396,-3.900499 -10.16763,-3.898335 -11.4058,-3.100578 -1.23815,0.797756 -4.34433,3.787846 -3.35744,7.287978 0.9869,3.5001 0.9976,4.033631 0.9976,4.033631 0,0 -1.22128,3.056998 -1.12255,3.406954 0.1946,0.689817 2.08165,0.766426 2.08165,0.766426 0.15515,1.361907 1.37548,5.060459 2.19073,5.263284 1.26718,0.315259 3.60562,-1.286041 3.80435,-1.158837 0.19874,0.127017 1.6603,6.052407 1.74868,6.092802 0.0884,0.04046 10.85784,-2.281904 10.85784,-2.281904 -1.19299,-2.136164 -2.20396,-4.312377 -2.99435,-6.537107"
           id="path5317"
           sodipodi:nodetypes="cssscscssscc" />
        <path
           style="fill:#373463;fill-opacity:1;stroke:none;stroke-width:0.829787px;stroke-linecap:butt;stroke-linejoin:miter;stroke-opacity:1"
           d="m 131.28016,45.680779 3.98121,4.30093 c 0,0 0.3832,-2.996206 2.57765,-4.743574 2.19445,-1.747337 3.7216,-4.550729 4.0022,-6.406704 0.28059,-1.855944 0.31683,-4.658646 -1.17042,-6.012389 -1.48724,-1.353712 -1.66879,-0.731364 -1.66879,-0.731364 0,0 0.26363,-2.448059 -1.51856,-3.941489 -1.78217,-1.493461 -4.54931,-1.139666 -4.54931,-1.139666 0,0 -2.14568,-2.950793 -4.91178,-3.608111 -2.7661,-0.657349 -3.41275,0.706995 -3.4264,1.416938 -0.0138,0.709943 -2.3647,-2.251576 -3.27359,-1.96016 -0.90889,0.291353 -2.19251,1.159079 -2.60979,2.91043 -0.41728,1.751383 0.0808,2.403902 0.0808,2.403902 0,0 -3.09863,0.350973 -4.41696,2.463553 -1.31834,2.112548 0.68334,2.323238 0.68334,2.323238 0,0 -1.98511,1.273049 -1.53601,1.996007 0.44911,0.72299 1.18844,0.986807 1.18844,0.986807 0,0 -1.02134,1.145562 -0.46603,1.518238 0.55532,0.372644 1.96577,0.78979 2.04441,1.03915 0.0787,0.249328 0.4666,1.564998 0.95606,1.551889 0.48947,-0.01254 1.57866,-0.633671 2.05552,-1.882225 0.47687,-1.248555 2.05867,-2.620896 2.50893,-2.627514 0.45025,-0.0063 0.96813,1.70365 1.36143,1.697033 0.39328,-0.0063 1.70883,0.01568 2.69129,-1.033913 0.98247,-1.04972 0.0129,3.321304 0.45742,3.756453 0.44455,0.43518 1.90649,0.998913 1.92056,1.535455 0.0141,0.536542 -1.12332,2.992756 0.40872,2.686223 1.53204,-0.306407 2.32123,-2.33525 2.2923,-2.72185 -0.0289,-0.386569 1.63668,-1.497915 2.20113,-0.213576 0.56445,1.284433 -1.86376,4.436163 -1.86376,4.436163 z"
           id="path1325"
           sodipodi:nodetypes="ccssscscscsscscscssssscsscscscc" />
        <path
           style="fill:#373463;fill-opacity:1;stroke:none;stroke-width:0.264583px;stroke-linecap:butt;stroke-linejoin:miter;stroke-opacity:1"
           d="m 98.076222,147.25821 13.486978,-25.57961 -5.77736,-3.25976 -10.8806,20.34896 c 0,0 -1.91733,-3.04892 -1.087453,-8.05076 0.570508,-3.43857 4.04543,-6.35374 4.04543,-6.35374 0,0 -3.046468,-2.82555 -5.74721,1.87227 -2.700745,4.69782 -3.034655,7.65917 -3.036608,10.76133 -0.0019,3.10215 0.482934,5.69649 0.946264,6.27749 0.463333,0.58101 8.050559,3.98382 8.050559,3.98382 z"
           id="path85328"
           sodipodi:nodetypes="ccccscscsc" />
        <path
           style="fill:#ff8764;fill-opacity:1;stroke:none;stroke-width:0.264583px;stroke-linecap:butt;stroke-linejoin:miter;stroke-opacity:1"
           d="m 168.23808,122.2324 c 0,0 0.88341,2.23825 1.13968,2.74172 0.25628,0.50347 0.38037,0.68456 1.46385,3.02131 1.08349,2.33674 1.60023,3.84924 1.34499,4.68184 -0.25524,0.83259 -0.87852,0.79108 -1.07067,1.17977 -0.19216,0.38869 -0.36734,0.86021 -0.6593,0.96318 -0.29195,0.10298 -0.45602,0.58569 -0.85921,0.90488 -0.4032,0.3192 -0.76745,0.32605 -1.00454,0.45631 -0.2371,0.13021 -0.31649,0.52368 -0.73146,0.69713 -0.41497,0.17345 -0.63039,0.43618 -1.09271,0.0384 -0.46232,-0.39775 -1.49297,-1.70788 -1.5812,-2.46741 -0.0882,-0.75954 -0.67573,0.0573 -1.17738,-0.1029 -0.50165,-0.16018 -0.22872,-1.84667 -0.0393,-2.54549 0.18939,-0.69883 0.7412,-3.45512 1.58059,-4.59501 0.83939,-1.13988 -0.66225,-2.88136 -0.66225,-2.88136 z"
           id="path26543"
           sodipodi:nodetypes="csssssscsssssscc" />
        <path
           style="fill:#fe8864;fill-opacity:1;stroke:none;stroke-width:0.264583px;stroke-linecap:butt;stroke-linejoin:miter;stroke-opacity:1"
           d="m 111.57085,232.08717 c 0,0 -0.0718,0.57674 -0.0935,1.79688 -0.0217,1.22015 -0.0248,1.21895 -0.0248,1.21895 0,0 0.54451,0.59691 1.56895,0.5083 1.02444,-0.0886 2.33365,-0.85065 2.33365,-0.85065 l 0.10939,-1.96473 c 0,0 0.0833,-0.19976 -0.99166,-0.42609 -1.07495,-0.22632 -2.0503,-0.55604 -2.47544,-0.41921 -0.42514,0.13683 -0.42662,0.13655 -0.42662,0.13655 z"
           id="path45244" />
        <path
           style="fill:none;stroke:#91919d;stroke-width:3.96875;stroke-linecap:butt;stroke-linejoin:miter;stroke-miterlimit:4;stroke-dasharray:none;stroke-opacity:1"
           d="m 121.25949,227.20204 c 0,0 -15.73024,-0.11456 -28.114464,-8.90574 -10.955874,-7.77724 -11.004153,-21.63972 -7.037477,-30.02303 5.325944,-11.25603 34.002391,-40.10161 41.259091,-48.40343 10.02799,-11.47223 -0.43873,-26.392 -11.57553,-21.63244 -3.83991,1.64108 -7.05247,4.19484 -7.05247,4.19484"
           id="path74303"
           sodipodi:nodetypes="cssssc" />
        <rect
           style="fill:#dea637;fill-opacity:1;stroke:none;stroke-width:0.265074;stroke-linecap:square;stroke-linejoin:round;paint-order:markers fill stroke"
           id="rect74188"
           width="5.2248259"
           height="4.8561068"
           x="121.08718"
           y="224.82497" />
        <path
           style="fill:#ff8764;fill-opacity:1;stroke:none;stroke-width:0.264583px;stroke-linecap:butt;stroke-linejoin:miter;stroke-opacity:1"
           d="m 107.0337,114.44339 -2.12575,3.41636 -6.924319,2.5718 c 0,0 -0.02191,0.34932 -2.154965,-0.18712 -1.592521,-0.20043 -2.511505,-0.21999 -3.196,0.0629 -0.278556,0.11513 -0.218138,1.06431 0.483336,1.43359 0.701471,0.36927 1.947958,0.66666 3.54875,0.6898 1.063902,-0.0978 0.195991,1.048 -0.959922,3.75816 -1.166695,2.73545 -1.142565,3.61025 -1.024582,3.92911 0.117983,0.31885 0.759354,0.68819 1.066289,0.64191 0.306935,-0.0463 0.845786,-0.3957 1.648875,-1.84663 0.80309,-1.45091 0.913231,0.0825 1.739297,-0.0526 0.982251,-0.16057 0.715558,-0.4558 1.361601,-0.46953 0.31169,-0.007 0.60852,0.0478 0.93837,0.13739 0.32985,0.0896 0.84365,-0.0862 1.39136,-0.19233 0.54772,-0.10616 0.76741,0.31063 1.73273,-0.91171 0.96531,-1.22233 3.39024,-6.2333 3.39024,-6.2333 l 2.94245,-3.07813 z"
           id="path21789"
           sodipodi:nodetypes="ccccsscsssssszssccc" />
        <g
           id="g40473"
           transform="translate(-113.56052,2.0139066)">
          <path
             style="fill:#373463;fill-opacity:1;stroke:none;stroke-width:0.264583px;stroke-linecap:butt;stroke-linejoin:miter;stroke-opacity:1"
             d="m 252.71487,153.2754 -10.54831,24.45493 c 0,0 -3.27066,16.75223 -4.53622,24.64016 -1.26556,7.88793 -5.62272,26.61099 -5.57456,28.88407 -2.72491,-0.34048 -9.17319,-1.61469 -9.17319,-1.61469 0,0 0.98038,-17.19562 1.10988,-21.83507 0.12949,-4.63945 0.93478,-18.9412 1.10566,-22.03247 0.17088,-3.09128 0.3034,-12.86997 0.72145,-15.90915 0.41804,-3.03918 2.29286,-11.24557 2.29286,-11.24557 l 5.89656,-29.14974 38.96412,-0.26596 z"
             id="path37759"
             sodipodi:nodetypes="ccsccssscccc" />
          <path
             style="fill:#485782;fill-opacity:1;stroke:none;stroke-width:0.264583px;stroke-linecap:butt;stroke-linejoin:miter;stroke-opacity:1"
             d="m 288.84408,223.73079 -5.97257,4.24805 c 0,0 -23.24955,-44.36066 -23.87413,-46.45311 -0.62457,-2.09244 -2.25305,-6.73706 -4.25077,-20.00095 -1.99772,-13.26389 -6.81876,-32.32287 -6.81876,-32.32287 l 24.96972,0.0592 4.19143,48.19792 z"
             id="path34351"
             sodipodi:nodetypes="ccsscccc" />
        </g>
        <path
           style="fill:#f1e1d4;fill-opacity:1;stroke:none;stroke-width:0.829787px;stroke-linecap:butt;stroke-linejoin:miter;stroke-opacity:1"
           d="m 125.93359,58.259999 c 0,0 5.26868,-0.463471 7.83274,-1.071859 2.22504,-0.527947 6.38486,-2.573604 6.49041,-2.222662 0.10553,0.350784 4.8708,9.399843 5.71469,10.845603 0.84389,1.445759 3.85835,10.143023 4.55159,12.613663 0.69326,2.47064 9.37737,19.21544 9.41362,19.964899 0.0363,0.74949 9.45572,23.949467 9.45572,23.949467 0,0 -1.62952,0.79971 -2.43587,1.39786 -0.80636,0.59814 -2.40227,2.19102 -2.40227,2.19102 0,0 -3.0132,-4.03764 -6.37946,-9.78886 0.0809,3.18027 3.22367,14.13949 3.22367,14.13949 0,0 -0.37056,1.15779 -1.81738,1.33411 -1.44682,0.17625 -17.99804,2.00243 -23.7726,1.30431 -5.77458,-0.69812 -16.14017,-1.13543 -16.86742,-1.64168 -0.72725,-0.50624 -0.32415,-16.51541 -0.28327,-19.36333 -1.90982,1.49673 -7.70447,7.10251 -7.70447,7.10251 0,0 -0.92296,-1.5467 -1.85384,-2.43219 -0.93087,-0.88549 -3.26115,-2.00172 -3.26115,-2.00172 0,0 12.45506,-16.403747 13.14426,-17.431169 0.68919,-1.027389 0.35574,-11.346824 2.44258,-17.067044 2.08684,-5.72022 3.89377,-10.001449 4.06852,-15.968964 0.0819,-2.79629 0.43993,-5.853454 0.43993,-5.853454 z"
           id="path12879"
           sodipodi:nodetypes="csssssczcccsssccscsssc" />
        <path
           style="fill:#30487e;fill-opacity:1;stroke:none;stroke-width:0.266789px;stroke-linecap:butt;stroke-linejoin:miter;stroke-opacity:1"
           d="m 114.71149,238.10878 -9.79517,-0.0349 c 0,0 -0.009,-0.43802 1.81033,-1.33097 1.81902,-0.89296 4.55026,-1.7149 4.55026,-1.7149 0,0 1.26314,0.63139 2.67735,0.17788 1.4142,-0.45351 1.54447,-0.48898 1.54447,-0.48898 0,0 0.23496,3.3684 -0.78724,3.39188 z"
           id="path40527" />
        <path
           style="fill:#30487e;fill-opacity:1;stroke:none;stroke-width:0.264583px;stroke-linecap:butt;stroke-linejoin:miter;stroke-opacity:1"
           d="m 175.15636,233.70963 -8.89996,3.76759 c 0,0 0.19194,-1.48933 2.48133,-3.39728 2.28939,-1.90795 2.3201,-1.89637 2.3201,-1.89637 0,0 0.53401,0.59443 2.03902,-0.33458 1.50501,-0.929 1.51358,-0.94629 1.51358,-0.94629 z"
           id="path48830" />
        <path
           style="color:#000000;fill:#fec424;fill-opacity:1;stroke-width:0.26546;stroke-linecap:square;stroke-linejoin:round;-inkscape-stroke:none;paint-order:markers fill stroke"
           d="m 134.75627,209.64043 h 18.27232 c 3.16352,0 5.71032,2.5468 5.71032,5.71032 v 11.38972 c 0,3.16351 -1.46872,5.71031 -5.71032,5.71031 h -18.27232 c -3.16352,0 -8.65191,0.98017 -8.65191,-4.38674 v -11.38972 c 0,-3.49378 4.9674,-7.03389 8.65191,-7.03389 z"
           id="rect64888"
           sodipodi:nodetypes="sssssssss" />
        <circle
           style="fill:#dea637;fill-opacity:1;stroke:none;stroke-width:0.267129;stroke-linecap:square;stroke-linejoin:round;paint-order:markers fill stroke"
           id="path68288"
           cx="146.97656"
           cy="229.68823"
           r="7.7276921" />
        <path
           style="fill:#91919d;fill-opacity:1;stroke:#91919d;stroke-width:3.96875;stroke-linecap:butt;stroke-linejoin:miter;stroke-miterlimit:4;stroke-dasharray:none;stroke-opacity:1"
           d="M 94.861152,145.78331 52.600777,228.17565"
           id="path99753"
           sodipodi:nodetypes="cc" />
        <path
           style="fill:#363361;fill-opacity:1;stroke:none;stroke-width:0.264583px;stroke-linecap:butt;stroke-linejoin:miter;stroke-opacity:1"
           d="m 57.329728,237.68515 v -5.15972 l -4.284254,0.0522 1.649556,-2.86831 c 0,0 0.49579,-1.81308 -0.944506,-2.84539 -1.384337,-0.9922 -3.185274,0.1696 -3.185274,0.1696 l -2.907093,5.48902 -4.92413,0.14807 c 0,0 -0.975175,-0.14208 -2.63281,1.56617 -1.248759,1.28689 -1.04833,1.92644 -1.514156,3.19881 -0.07232,0.24809 18.742667,0.24955 18.742667,0.24955 z"
           id="path94272"
           sodipodi:nodetypes="ccccscccscc" />
        <path
           style="fill:#373463;fill-opacity:1;stroke:none;stroke-width:0.264583px;stroke-linecap:butt;stroke-linejoin:miter;stroke-opacity:1"
           d="m 69.648932,200.66078 -4.701527,-2.23828 5.660377,-11.18942 4.866962,1.95301 z"
           id="path91901" />
        <path
           style="fill:none;fill-opacity:1;stroke:#91919d;stroke-width:0.529167;stroke-linecap:butt;stroke-linejoin:miter;stroke-miterlimit:4;stroke-dasharray:none;stroke-opacity:1"
           d="m 157.63132,116.35521 c 0,0 -0.80557,-9.8448 -2.54099,-17.113124 -1.73543,-7.268318 -3.27782,-12.165375 -3.27782,-12.165375"
           id="path111712"
           sodipodi:nodetypes="czc" />
        <g
           id="g139262"
           transform="translate(142.22347,2.1475188)">
          <path
             style="fill:none;stroke:#91919d;stroke-width:0.529167;stroke-linecap:butt;stroke-linejoin:miter;stroke-miterlimit:4;stroke-dasharray:none;stroke-opacity:1"
             d="m -22.943593,109.34381 11.939272,-11.901387 c 0,0 5.5837646,-7.247382 7.9672603,-10.932982 C 0.43700006,81.1375 1.915122,74.494283 1.915122,74.494283"
             id="path133565"
             sodipodi:nodetypes="ccsc" />
          <path
             style="fill:none;stroke:#91919d;stroke-width:0.529167;stroke-linecap:butt;stroke-linejoin:miter;stroke-miterlimit:4;stroke-dasharray:none;stroke-opacity:1"
             d="m -22.619639,93.297406 c 0,0 6.959727,-14.266649 8.754257,-18.928901 1.79453,-4.662252 3.099235,-6.638525 4.582095,-8.404768 0.9867778,-1.175357 5.5594789,-2.629449 6.0151789,-1.631613"
             id="path133567"
             sodipodi:nodetypes="cssc" />
        </g>
      </g>
    </g>
  </g>
</svg>
